# xmcd
# Copyright (C) 1995-1998 Ti Kan
#
# Track frame offsets:
#       150
#       12962
#       27627
#       43953
#       60729
#
# Disc length: 1103 seconds
#
# Revision: 0
# Processed by: cddbd v1.4b42PL1 Copyright (c) Steve Scherf et al.
# Submitted via: CD-Transfer v1.0
#
DISCID=41044d05
DTITLE=Roman Lamarr - Roman Lamarr
DYEAR=2000
DGENRE=
TTITLE0=Oh Pretty Woman
TTITLE1=Some Truth
TTITLE2=Praying For You
TTITLE3=Love Is A Sinner
TTITLE4=Make It Easy On Yourself
EXTD=
EXTT0=
EXTT1=
EXTT2=
EXTT3=
EXTT4=
PLAYORDER=
